<svg width="24" height="24" viewBox="0 0 24 24" fill="none" xmlns="http://www.w3.org/2000/svg">
<path d="M21.5006 13.1606C21.1331 8.29125 17.7075 4.93125 12 4.93125C6.29249 4.93125 2.85937 8.49938 2.52187 13.3706C2.32499 16.2094 3.38062 18.7388 5.50499 20.1806C6.90374 21.1313 8.85749 21.6581 12.0244 21.6581C15.2456 21.6581 17.0925 20.9625 18.4912 20.0212C20.8219 18.4556 21.7125 15.9581 21.5006 13.1606Z" fill="#FFC022"/>
<path d="M10.0725 7.9875C8.68126 4.3875 5.64376 1.93875 4.47563 1.57313C4.03501 1.43438 3.48188 1.42125 3.23251 1.82625C2.60251 2.84813 1.79626 6.12938 3.57938 10.785L10.0725 7.9875Z" fill="#FFC022"/>
<path d="M6.77249 6.41438C7.06124 6.1725 7.20186 5.93625 6.88499 5.44688C6.39374 4.6875 5.51061 3.80063 5.16749 3.52875C4.60499 3.0825 4.16999 2.9325 4.00311 3.65063C3.69374 4.97813 3.71811 6.78 4.04999 7.77375C4.16624 8.12438 4.52624 8.31 4.80374 8.06813L6.77249 6.41438Z" fill="#FFD1D1"/>
<path d="M10.1475 8.44125C10.3594 8.62125 10.7888 8.595 11.0381 8.30625C11.34 7.95563 11.655 6.77438 11.4581 4.94813C10.5825 4.98 9.75376 5.10563 8.98126 5.3175C9.60564 6.34125 9.75564 8.1075 10.1475 8.44125ZM13.8525 8.44125C13.6406 8.62125 13.2113 8.595 12.9619 8.30625C12.66 7.95563 12.345 6.77438 12.5419 4.94813C13.4175 4.98 14.2463 5.10563 15.0188 5.3175C14.3944 6.34125 14.2444 8.1075 13.8525 8.44125Z" fill="#FF9B31"/>
<path d="M14.9813 5.47875C16.4963 3.15187 18.615 1.58812 19.4944 1.30875C19.9294 1.17 20.4356 1.1925 20.6831 1.59937C21.3056 2.62125 21.8325 5.76937 20.6044 10.1775L16.1175 8.01375L14.9813 5.47875Z" fill="#FFC022"/>
<path d="M18.2906 7.16812C18.7463 7.62375 19.1175 7.92937 19.3856 8.22C19.5638 8.41312 19.89 8.325 19.9425 8.06625C20.4019 5.85375 20.2556 3.9675 19.9425 3.4725C19.7925 3.23625 19.5131 3.17437 19.2581 3.26062C18.8006 3.4125 17.6344 4.2825 16.8113 5.55187C16.7156 5.7 16.7513 5.89875 16.8975 5.99812C17.1938 6.19875 17.7113 6.58687 18.2906 7.16812Z" fill="#FFD1D1"/>
<path d="M10.4381 14.5781C10.4288 14.0006 11.2575 13.725 12.0394 13.7119C12.8231 13.6988 13.6669 13.9538 13.6763 14.5313C13.6856 15.1088 12.6975 15.8681 12.075 15.8681C11.4544 15.8681 10.4494 15.1538 10.4381 14.5781Z" fill="black"/>
<path d="M1.25626 13.3181C1.32001 13.395 2.08314 13.3838 3.94876 14.2688M0.543762 15.5363C0.543762 15.5363 1.74751 15.1163 3.81751 15.4838M1.65189 17.3044C1.65189 17.3044 2.16564 17.0456 4.02751 16.8825M22.6631 12.6581C22.6631 12.6581 22.0238 12.72 20.0494 13.8469M22.9538 14.7169C22.9538 14.7169 21.9994 14.6494 19.9444 15.0863M22.5844 16.6969C22.5844 16.6969 21.6788 16.3763 19.8131 16.275" stroke="#9E9E9E" stroke-miterlimit="10" stroke-linecap="round"/>
<path d="M18.0169 12.4444C17.9531 13.4775 17.3119 14.0456 16.5825 14.0456C15.8531 14.0456 15.2625 13.3181 15.2625 12.4219C15.2625 11.5256 15.8775 10.7888 16.6969 10.8338C17.6475 10.8881 18.0694 11.6006 18.0169 12.4444ZM8.62501 12.3394C8.77126 13.3913 8.32876 14.0325 7.59564 14.1806C6.86251 14.3288 6.23439 13.8356 6.05251 12.9356C5.86876 12.0338 6.22126 11.1881 7.05376 11.0663C8.01939 10.9256 8.50501 11.4788 8.62501 12.3394Z" fill="#000200"/>
<path d="M8.43563 15.9675C7.95376 16.2806 8.52376 17.0063 8.85751 17.2519C9.19126 17.4975 9.79126 17.7994 10.6706 17.7094C11.7094 17.6044 12.0075 16.83 12.0075 16.83C12.0075 16.83 12.3769 17.6925 13.6613 17.7281C14.9644 17.7638 15.3675 17.0588 15.5438 16.8488C15.72 16.6369 15.8963 16.0913 15.5963 15.8813C15.2963 15.6694 15.0863 15.9338 14.7694 16.3744C14.4525 16.815 13.8019 17.0606 13.1681 16.7606C12.5344 16.4606 12.4988 15.4406 12.4988 15.4406L11.6006 15.4931C11.6006 15.4931 11.46 16.3725 11.055 16.6538C10.65 16.935 9.68251 17.0063 9.27751 16.3894C9.09938 16.1156 8.84063 15.7031 8.43563 15.9675Z" fill="black"/>
</svg>
