<svg width="24" height="24" viewBox="0 0 24 24" fill="none" xmlns="http://www.w3.org/2000/svg">
<path d="M3.5925 9.17625V5.35875L3.285 5.3775V3.02625L6.25125 3.0075V5.32312H5.94375V7.56562L3.5925 9.17625Z" fill="#AB5832"/>
<path d="M12.0206 4.37437L3.50061 12.9356L3.56624 20.85L20.3944 20.6906L20.4187 12.2531L12.0206 4.37437Z" fill="#FFF3E1"/>
<path d="M3.18188 19.4606L3.77064 19.1362V12.7462L3.22313 13.1119C3.22126 13.1119 3.28313 19.4606 3.18188 19.4606ZM20.1 13.0912V19.0969L20.6888 19.4212V13.3144L20.1 13.0912Z" fill="#5F4E47"/>
<path d="M12.0788 5.28937L3.22125 13.5787V11.4881L12.0881 3.09L20.6888 11.9962V13.7606L12.0788 5.28937Z" fill="#BCAA93"/>
<path d="M2.35312 11.13L1.83374 12.0881L3.22687 12.0675C3.22687 12.0675 11.9175 3.615 12.105 3.6075C12.3319 3.59813 20.685 12.2156 20.685 12.2156L21.9206 12.1969L12.6506 2.21063L11.2894 2.12063L2.35312 11.13Z" fill="#AB5832"/>
<path d="M0.750006 11.8481C0.603756 12.0262 0.748131 12.12 0.866256 12.12C0.984381 12.12 2.34563 12.0806 2.34563 12.0806L11.7281 2.95125C11.7281 2.95125 11.9438 2.73 12.0975 2.7375C12.2644 2.745 12.48 2.95687 12.48 2.95687L21.9075 12.1987C21.9075 12.1987 22.9819 12.2025 23.1525 12.1594C23.3381 12.1144 23.2444 11.9381 23.0156 11.6925C22.8469 11.5106 13.3163 2.08312 13.1588 1.92C12.69 1.43625 12.4613 1.155 12.0188 1.17375C11.5744 1.1925 11.3119 1.52062 10.8675 1.92937C10.7363 2.05312 0.811881 11.7731 0.750006 11.8481Z" fill="#ED6C31"/>
<path d="M17.5313 15.1556H19.4531V13.5563C19.4531 13.4856 19.4392 13.4156 19.4122 13.3503C19.3851 13.285 19.3455 13.2257 19.2955 13.1757C19.2455 13.1258 19.1862 13.0861 19.1209 13.0591C19.0557 13.032 18.9857 13.0181 18.915 13.0181H17.5313V15.1556ZM16.9538 15.1556V13.0181H15.4538C15.3831 13.0181 15.3131 13.032 15.2478 13.0591C15.1825 13.0861 15.1232 13.1258 15.0732 13.1757C15.0233 13.2257 14.9836 13.285 14.9566 13.3503C14.9296 13.4156 14.9156 13.4856 14.9156 13.5563V15.1575H16.9538V15.1556ZM16.9538 15.7631H14.9156V17.2631C14.9156 17.4058 14.9723 17.5427 15.0732 17.6436C15.1742 17.7446 15.311 17.8013 15.4538 17.8013H16.9538V15.7631ZM17.5313 15.7631V17.8013H18.915C19.0577 17.8013 19.1946 17.7446 19.2955 17.6436C19.3964 17.5427 19.4531 17.4058 19.4531 17.2631V15.7631H17.5313ZM6.89063 15.1556H8.81251V13.5563C8.81251 13.4856 8.79859 13.4156 8.77155 13.3503C8.7445 13.285 8.70486 13.2257 8.65489 13.1757C8.60492 13.1258 8.5456 13.0861 8.48031 13.0591C8.41503 13.032 8.34505 13.0181 8.27438 13.0181H6.89063V15.1556ZM6.31126 15.1556V13.0181H4.81126C4.74059 13.0181 4.67061 13.032 4.60533 13.0591C4.54004 13.0861 4.48071 13.1258 4.43075 13.1757C4.38078 13.2257 4.34114 13.285 4.31409 13.3503C4.28705 13.4156 4.27313 13.4856 4.27313 13.5563V15.1575H6.31126V15.1556ZM6.31126 15.7631H4.27501V17.2631C4.27501 17.4058 4.3317 17.5427 4.43262 17.6436C4.53354 17.7446 4.67041 17.8013 4.81313 17.8013H6.31313V15.7631H6.31126ZM6.89063 15.7631V17.8013H8.27438C8.4171 17.8013 8.55398 17.7446 8.65489 17.6436C8.75581 17.5427 8.81251 17.4058 8.81251 17.2631V15.7631H6.89063Z" fill="#A6CFD5"/>
<path d="M9.43874 20.0119C9.43874 20.0119 9.41061 15.3731 9.43874 14.2013C9.46686 13.0313 10.5656 12.0188 11.8387 12.0619C13.4137 12.1163 14.2237 13.0013 14.2819 14.1431C14.34 15.285 14.34 20.0831 14.34 20.0831L9.43874 20.0119Z" fill="#D27857"/>
<path d="M10.0256 20.2631C10.0256 20.2631 10.0031 15.3206 10.0256 14.4056C10.0538 13.2712 10.9087 12.675 11.9025 12.7312C13.0594 12.7969 13.6313 13.4119 13.6763 14.3062C13.7213 15.1987 13.7212 20.2669 13.7212 20.2669L10.0256 20.2631Z" fill="#AB5932"/>
<path d="M13.1231 16.2338C13.1194 15.42 13.1119 14.7019 13.1006 14.4825C13.0706 13.8919 12.6506 13.4325 11.835 13.4044C11.1769 13.3819 10.635 13.8956 10.62 14.5013C10.6144 14.7244 10.6163 15.4256 10.62 16.2244L13.1231 16.2338ZM10.6256 17.1469C10.6331 18.2363 10.6425 19.2394 10.6425 19.2394L13.1306 19.2469C13.1306 19.2469 13.1306 18.2475 13.1269 17.1581L10.6256 17.1469Z" fill="#D27857"/>
<path d="M13.1306 16.6519C13.1213 16.9163 13.2281 17.13 13.5413 17.13C13.8544 17.13 13.9688 16.9838 13.9913 16.7006C14.01 16.4475 13.8356 16.2225 13.5413 16.2413C13.2488 16.2619 13.1381 16.4663 13.1306 16.6519Z" fill="#FFBA02"/>
<path d="M14.9269 21.8081C14.9269 21.8081 16.9669 21.8288 18.4406 21.7856C19.9144 21.7425 20.9813 21.8081 21.2006 21.5869C21.42 21.3675 21.4163 19.4981 20.3944 18.9919C19.455 18.5269 18.8475 18.9994 18.525 19.0313C18.0994 19.0744 17.5725 18.81 17.1863 18.8025C15.5906 18.7688 15.0319 20.0231 15.0319 20.0231L14.9269 21.8081ZM2.72438 21.6544C2.895 21.8138 4.19813 21.8194 5.77126 21.8081C7.34438 21.7969 8.61001 21.8119 8.61001 21.8119L8.87251 20.2238L8.55376 19.9594C8.55376 19.9594 8.58938 19.1644 7.58626 18.8925C6.89251 18.705 6.28876 19.0144 5.70563 19.0238C5.12251 19.035 4.58438 18.7706 3.93563 18.9244C3.33188 19.0669 2.86125 19.4606 2.67 20.2556C2.53688 20.8069 2.57063 21.51 2.72438 21.6544Z" fill="#728037"/>
<path d="M8.42249 23.4694L8.43561 21.81H8.55749L8.55561 19.9613H15.0675L15.045 21.81H15.1875V23.4263C15.1856 23.4244 8.42249 23.4788 8.42249 23.4694Z" fill="#B0B0B0"/>
<path d="M15.1856 22.7438V23.4244L8.42062 23.4694L8.42625 22.7381L15.1856 22.7438ZM8.55375 21.09L15.0506 21.0919V21.8081H8.55375V21.09Z" fill="#9B9B9B"/>
</svg>
