<svg width="24" height="24" viewBox="0 0 24 24" fill="none" xmlns="http://www.w3.org/2000/svg">
<path d="M4.64814 7.40812C3.42001 7.11937 2.30064 6.38812 1.55626 5.36062L1.35939 5.08875C1.22439 4.90125 1.26564 4.63875 1.45314 4.50375L1.99689 4.11C2.18439 3.975 2.44689 4.01625 2.58189 4.20375L2.77876 4.47562C3.42189 5.3625 4.45689 5.94187 5.54814 6.02437L6.30001 6.0825L6.18376 7.58812L5.43189 7.53C5.16939 7.50937 4.90689 7.47 4.64814 7.40812V7.40812Z" fill="#874D36"/>
<path d="M4.64814 7.40812C3.42001 7.11937 2.30064 6.38812 1.55626 5.36062L1.35939 5.08875C1.22439 4.90125 1.26564 4.63875 1.45314 4.50375L1.99689 4.11C2.18439 3.975 2.44689 4.01625 2.58189 4.20375L2.77876 4.47562C3.42189 5.3625 4.45689 5.94187 5.54814 6.02437L6.30001 6.0825L6.18376 7.58812L5.43189 7.53C5.16939 7.50937 4.90689 7.47 4.64814 7.40812V7.40812Z" fill="#874D36"/>
<path d="M1.99689 4.11C1.83751 4.22625 1.75876 4.2825 1.56751 4.42125C1.33314 4.59187 2.00814 5.50687 2.71876 6.00562C2.98876 6.195 3.78001 6.30562 3.89439 5.835C3.92064 5.72625 3.88314 5.60812 3.81939 5.51437C3.71064 5.35687 3.53439 5.25187 3.39001 5.13C3.16126 4.93687 2.95501 4.7175 2.77876 4.47562L2.58189 4.20375C2.44689 4.01625 2.18439 3.975 1.99689 4.11Z" fill="#DE7340"/>
<path d="M4.74374 5.8725C4.99124 6.24 5.13562 6.88687 5.12999 7.32937L5.74687 6.79125C5.60624 6.13875 5.49562 6.01312 5.49562 6.01312C5.20124 5.99062 4.74374 5.8725 4.74374 5.8725Z" fill="#4E342E"/>
<path d="M5.96625 8.36812L5.8725 7.62C5.73888 6.54652 5.38291 5.5127 4.8273 4.58454C4.27169 3.65637 3.52865 2.85424 2.64563 2.22937L2.39813 2.055C2.34965 2.02073 2.30841 1.97722 2.27679 1.92697C2.24516 1.87673 2.22377 1.82073 2.21384 1.7622C2.20391 1.70366 2.20564 1.64374 2.21892 1.58588C2.23221 1.52801 2.25679 1.47334 2.29125 1.425L2.64188 0.929998C2.71116 0.832238 2.81635 0.765908 2.93442 0.745526C3.05249 0.725144 3.17383 0.752372 3.27188 0.821248L3.5175 0.995623C4.57193 1.74192 5.4593 2.69973 6.12303 3.808C6.78676 4.91626 7.21229 6.15066 7.3725 7.4325L7.46625 8.18062L5.96625 8.36812V8.36812Z" fill="#874D36"/>
<path d="M5.96625 8.36812L5.8725 7.62C5.73888 6.54652 5.38291 5.5127 4.8273 4.58454C4.27169 3.65637 3.52865 2.85424 2.64563 2.22937L2.39813 2.055C2.34965 2.02073 2.30841 1.97722 2.27679 1.92697C2.24516 1.87673 2.22377 1.82073 2.21384 1.7622C2.20391 1.70366 2.20564 1.64374 2.21892 1.58588C2.23221 1.52801 2.25679 1.47334 2.29125 1.425L2.64188 0.929998C2.71116 0.832238 2.81635 0.765908 2.93442 0.745526C3.05249 0.725144 3.17383 0.752372 3.27188 0.821248L3.5175 0.995623C4.57193 1.74192 5.4593 2.69973 6.12303 3.808C6.78676 4.91626 7.21229 6.15066 7.3725 7.4325L7.46625 8.18062L5.96625 8.36812V8.36812Z" fill="#874D36"/>
<path d="M3.63186 9.72563C3.63186 9.72563 7.70061 19.4906 17.9812 22.9331C18.4012 23.0738 18.81 22.6913 18.7069 22.26L17.6512 17.9306C17.6119 17.7675 17.7262 17.6081 17.895 17.5913C19.7156 17.4188 21.2587 17.0775 22.2544 16.8131C22.725 16.6894 22.83 16.0669 22.425 15.7988C14.8612 10.7831 10.5937 4.05938 10.5937 4.05938C10.514 3.96134 10.4157 3.87997 10.3045 3.81993C10.1933 3.75989 10.0713 3.72236 9.94561 3.70947C9.81989 3.69659 9.69286 3.7086 9.57179 3.74483C9.45071 3.78107 9.33796 3.8408 9.23999 3.92063L3.77061 8.37375C3.19124 8.8275 3.63186 9.72563 3.63186 9.72563ZM7.47186 8.99063C7.10436 8.53875 7.17186 7.875 7.62374 7.5075C8.07561 7.14 8.73936 7.2075 9.10686 7.65938C9.19433 7.76671 9.25979 7.89022 9.2995 8.02287C9.33921 8.15551 9.35238 8.29468 9.33828 8.43241C9.32417 8.57015 9.28306 8.70376 9.2173 8.8256C9.15153 8.94744 9.06239 9.05513 8.95499 9.1425C8.84766 9.22997 8.72414 9.29543 8.5915 9.33514C8.45885 9.37485 8.31969 9.38803 8.18195 9.37392C8.04421 9.35982 7.9106 9.3187 7.78876 9.25294C7.66692 9.18717 7.55924 9.09803 7.47186 8.99063Z" fill="#F44336"/>
<path d="M7.43437 8.2725C7.37624 8.28187 7.31812 8.28187 7.26374 8.26312C7.05937 8.19375 7.06874 7.91812 6.98624 7.75125C6.88686 7.55062 6.74999 7.37062 6.59249 7.21125C6.42374 7.03875 6.23062 6.87 5.99437 6.80062C5.88561 6.76875 5.78062 6.77437 5.67749 6.81375C5.70187 6.71437 5.67186 6.60937 5.69624 6.50437C5.75624 6.24 5.95686 5.99062 6.17249 5.835C6.34124 5.71125 6.52499 5.595 6.72749 5.53875C6.94687 5.47875 7.10437 5.535 7.30312 5.6325C7.65749 5.80687 7.96499 6.07875 8.18624 6.40687C8.48812 6.855 8.68499 7.35187 8.24999 7.7775C8.06999 7.95375 7.85999 8.1 7.63312 8.20687C7.56749 8.23312 7.50187 8.25937 7.43437 8.2725Z" fill="#874D36"/>
<path d="M6.65813 5.76375C6.88501 5.68125 7.17188 5.7225 7.35751 5.80125C7.44563 5.83875 7.63313 6.00937 7.63501 6.14062C7.63501 6.33937 7.46063 6.49312 7.24126 6.64312C7.04626 6.79125 6.85876 6.84937 6.63751 6.71812C6.44251 6.61312 5.94563 6.525 5.99626 6.35625C6.07126 6.09562 6.41626 5.85187 6.65813 5.76375ZM2.21063 1.76625C2.21063 1.76625 2.26313 1.60875 2.40376 1.58625C2.54438 1.56375 3.33001 2.025 4.08751 2.8125C4.59188 3.3375 5.50501 4.6875 5.65688 4.76812C5.76376 4.82437 5.89501 4.8525 6.00376 4.8C6.17063 4.7175 6.20063 4.4925 6.17813 4.30687C6.08813 3.59625 5.66251 3.06937 5.20688 2.53687C4.70878 1.95486 4.14074 1.43656 3.51563 0.993748L3.27001 0.819373C3.06563 0.674998 2.84251 0.656248 2.63813 0.888748C2.63626 0.890623 2.10751 1.48687 2.21063 1.76625Z" fill="#DE7340"/>
<path d="M12.27 12.84L13.5975 13.4456L14.85 12.6956L14.6831 14.1469L15.7837 15.105L14.3531 15.3956L13.7812 16.7381L13.0631 15.4669L11.6081 15.3394L12.5962 14.2631L12.27 12.84Z" fill="#FCEBCD"/>
<path d="M12.27 12.84L13.5975 13.4456L14.85 12.6956L14.6831 14.1469L15.7837 15.105L14.3531 15.3956L13.7812 16.7381L13.0631 15.4669L11.6081 15.3394L12.5962 14.2631L12.27 12.84Z" fill="#FCEBCD"/>
</svg>
